<svg width="36" height="24" viewBox="0 0 36 24" fill="none" xmlns="http://www.w3.org/2000/svg">
<g clip-path="url(#clip0_446_2908)">
<path d="M0 0H36V24H0V0Z" fill="#C1272D"/>
<path d="M21.5263 16.854L17.9999 14.2916L14.4735 16.854L15.8203 12.7084L12.2939 10.146H16.6539L17.9999 6L19.3467 10.1456H23.7067L20.1803 12.708L21.5263 16.854ZM18.4863 13.9392L20.4399 15.36L19.6927 13.0604L18.4863 13.9392ZM16.3067 13.0592L15.5599 15.36L17.5163 13.9388L16.3067 13.0592ZM16.4923 12.4888L17.9999 13.5868L19.5087 12.4904L18.9323 10.7164H17.0675L16.4923 12.4888ZM19.5323 10.7148L19.9939 12.1364L21.9507 10.7148H19.5323ZM14.0491 10.7148L16.0059 12.1364L16.4675 10.7148H14.0491ZM17.2527 10.1444H18.7471L17.9999 7.846L17.2527 10.1444Z" fill="#006233"/>
</g>
<defs>
<clipPath id="clip0_446_2908">
<rect width="36" height="24" rx="2" fill="white"/>
</clipPath>
</defs>
</svg>
